<svg id="Design" xmlns="http://www.w3.org/2000/svg" width="1935.875" height="2000" viewBox="0 0 1935.875 2000">
  <defs>
    <style>
      .cls-1 {
        fill: #7fdbbb;
        fill-rule: evenodd;
      }
    </style>
  </defs>
  <path class="cls-1" d="M1575.48,1154.43l-557.41,624.34c-69.034,84.19-55.81,209.19,29.53,279.2s210.49,58.5,279.52-25.7l557.41-624.33c69.03-84.19,55.81-209.2-29.53-279.2S1644.51,1070.24,1575.48,1154.43Z" transform="translate(-17.625)"/>
  <path id="Shape_4_" data-name="Shape 4 " class="cls-1" d="M1600.23,482.33l-557.41,624.33c-69.031,84.2-55.806,209.2,29.54,279.2s210.49,58.5,279.52-25.69l557.41-624.333c69.03-84.195,55.8-209.2-29.54-279.2S1669.26,398.135,1600.23,482.33Z" transform="translate(-17.625)"/>
  <path class="cls-1" d="M761.992,1428.35l-287.859,334c-66.326,86.34-49.144,210.86,38.377,278.12s212.238,51.8,278.564-34.55l287.856-333.99c66.33-86.34,49.15-210.86-38.37-278.13S828.318,1342.01,761.992,1428.35Z" transform="translate(-17.625)"/>
  <path class="cls-1" d="M1367.36,102.724L61.84,1563.29c-69.03,84.19-55.805,209.2,29.538,279.2s210.49,58.5,279.521-25.69L1676.42,356.231c69.03-84.195,55.8-209.2-29.54-279.2S1436.39,18.529,1367.36,102.724Z" transform="translate(-17.625)"/>
  <path class="cls-1" d="M909.877-27.479l-557.41,624.33c-69.031,84.2-55.806,209.2,29.538,279.2s210.49,58.5,279.52-25.7l557.405-624.33c69.04-84.2,55.81-209.2-29.53-279.2S978.907-111.674,909.877-27.479Z" transform="translate(-17.625)"/>
</svg>
